<svg width="30" height="30" xmlns="http://www.w3.org/2000/svg">

 <g>
  <title>background</title>
  <rect fill="none" id="canvas_background" height="32" width="32" y="-1" x="-1"/>
 </g>
 <g>
  <title>Layer 1</title>
  <path stroke="null" id="svg_1" fill-rule="evenodd" fill="#6e00ff" d="m14.99907,0.493866c-8.212553,0 -14.871481,6.658927 -14.871481,14.87334c0,6.5706 4.260152,12.14543 10.171554,14.112798c0.743806,0.135745 0.978106,-0.304961 0.978106,-0.699178c0,-0.353308 0.007438,-1.340711 0,-2.581938c-4.136494,0.899076 -4.993731,-1.959 -4.993731,-1.959c-0.675934,-1.718193 -1.650321,-2.175634 -1.650321,-2.175634c-1.350009,-0.92232 0.101344,-0.904655 0.101344,-0.904655c1.492262,0.105063 2.278837,1.533171 2.278837,1.533171c1.326765,2.271399 3.480085,1.61499 4.327094,1.235649c0.135745,-0.96137 0.520665,-1.616849 0.945564,-1.988753c-3.302501,-0.375622 -6.774217,-1.65125 -6.774217,-7.350667c0,-1.624287 0.579239,-2.951052 1.530382,-3.990522c-0.15341,-0.375622 -0.664777,-1.888339 0.145972,-3.936596c0,0 1.248665,-0.399796 4.089076,1.525733c1.186371,-0.330064 2.45921,-0.494631 3.723681,-0.50021c1.263541,0.005579 2.53545,0.170146 3.723681,0.50021c2.840411,-1.924599 4.087217,-1.525733 4.087217,-1.525733c0.810749,2.048257 0.300312,3.560974 0.147832,3.936596c0.951143,1.03947 1.528522,2.366234 1.528522,3.990522c0,5.714293 -3.477295,6.971326 -6.790953,7.338581c0.533681,0.46023 1.018085,1.352798 1.018085,2.739997c0,1.859516 0,3.627916 0,4.116969c0,0.397936 0.239878,0.837712 0.994841,0.6936c5.905823,-1.970157 10.162256,-7.542198 10.162256,-14.110939c0,-8.214413 -6.658927,-14.87334 -14.87334,-14.87334z" clip-rule="evenodd"/>
 </g>
</svg>