<svg width="30" height="30" xmlns="http://www.w3.org/2000/svg" clip-rule="evenodd">

 <g>
  <title>background</title>
  <rect fill="none" id="canvas_background" height="32" width="32" y="-1" x="-1"/>
 </g>
 <g>
  <title>Layer 1</title>
  <path fill="#6e00ff" stroke="null" id="svg_1" d="m15,0.413433c8.050532,0 14.586567,6.536036 14.586567,14.586567c0,8.050532 -6.536036,14.586567 -14.586567,14.586567c-8.050532,0 -14.586567,-6.536036 -14.586567,-14.586567c0,-8.050532 6.536036,-14.586567 14.586567,-14.586567zm-4.560411,22.784161l0,-11.391254l-3.787038,0l0,11.391254l3.787038,0zm13.653255,0l0,-6.532389c0,-3.49901 -1.868163,-5.126723 -4.359389,-5.126723c-2.008787,0 -2.908596,1.104762 -3.412402,1.880699l0,-1.612841l-3.786069,0c0.050198,1.068751 0,11.391254 0,11.391254l3.786012,0l0,-6.361681c0,-0.340505 0.024501,-0.680896 0.124841,-0.924253c0.273213,-0.680042 0.896675,-1.384527 1.942691,-1.384527c1.369428,0 1.918077,1.044991 1.918077,2.575669l0,6.094792l3.78624,0zm-15.52119,-16.884009c-1.295697,0 -2.142231,0.851833 -2.142231,1.968332c0,1.092967 0.820779,1.968275 2.09209,1.968275l0.024444,0c1.320483,0 2.142402,-0.875308 2.142402,-1.968275c-0.024501,-1.116499 -0.821862,-1.968332 -2.116705,-1.968332z"/>
 </g>
</svg>