<svg width="30" height="30" xmlns="http://www.w3.org/2000/svg">

 <g>
  <title>background</title>
  <rect fill="none" id="canvas_background" height="32" width="32" y="-1" x="-1"/>
 </g>
 <g>
  <title>Layer 1</title>
  <circle stroke="null" id="svg_2" r="14.634166" fill="#6e00ff" cy="15" cx="15"/>
  <path stroke="null" id="svg_3" fill-rule="evenodd" fill="#FFFFFF" d="m15.444296,18.241216c-0.522259,0.508698 -1.039999,1.008958 -1.552916,1.513136c-0.17931,0.176598 -0.380921,0.274239 -0.638284,0.260678c-0.175694,-0.009342 -0.273938,-0.086491 -0.327881,-0.253144c-0.392975,-1.21961 -0.791677,-2.436206 -1.182543,-3.657022c-0.037972,-0.118435 -0.094025,-0.175995 -0.213967,-0.213063c-0.925783,-0.282677 -1.849757,-0.571984 -2.772224,-0.865209c-0.141941,-0.045204 -0.285088,-0.104271 -0.407742,-0.187748c-0.189556,-0.12838 -0.217282,-0.337826 -0.047314,-0.488507c0.157009,-0.138928 0.344456,-0.260075 0.539136,-0.337224c1.131612,-0.448426 2.269252,-0.882386 3.405084,-1.320265c2.882523,-1.112928 5.765046,-2.224952 8.64787,-3.33788c0.548177,-0.211857 0.96948,0.086491 0.912523,0.679269c-0.036465,0.379113 -0.134709,0.752198 -0.213967,1.126489c-0.625928,2.955452 -1.252458,5.911206 -1.881701,8.866055c-0.149475,0.70157 -0.642201,0.884797 -1.21961,0.458974c-0.967069,-0.71272 -1.933234,-1.427851 -2.8997,-2.141776c-0.046108,-0.033451 -0.094025,-0.065697 -0.146763,-0.102764zm-2.170707,0.897455c0.010849,-0.003014 0.021698,-0.006027 0.032547,-0.008739c0.006027,-0.027725 0.014767,-0.054848 0.017178,-0.082272c0.06208,-0.669927 0.127777,-1.339552 0.181721,-2.010684c0.012054,-0.149475 0.063286,-0.255555 0.175694,-0.356209c0.891427,-0.797101 1.77743,-1.599325 2.665241,-2.399742c0.98274,-0.886304 1.965781,-1.771704 2.944905,-2.661625c0.060574,-0.054848 0.085888,-0.14827 0.127476,-0.224213c-0.092217,-0.009945 -0.191063,-0.047012 -0.274842,-0.025314c-0.114216,0.029533 -0.222405,0.095833 -0.324265,0.160023c-2.168899,1.366072 -4.335989,2.734554 -6.506395,4.097914c-0.122654,0.077149 -0.145558,0.142544 -0.098847,0.277253c0.160023,0.459576 0.305581,0.923372 0.456563,1.386263c0.201008,0.615983 0.402016,1.231664 0.603024,1.847346z" clip-rule="evenodd"/>
 </g>
</svg>